<svg width="80" height="80" viewBox="0 0 80 80" fill="none" xmlns="http://www.w3.org/2000/svg">
<g clip-path="url(#clip0_1_17268)">
<path d="M40 80C62.0914 80 80 62.0914 80 40C80 17.9086 62.0914 0 40 0C17.9086 0 0 17.9086 0 40C0 62.0914 17.9086 80 40 80Z" fill="url(#paint0_linear_1_17268)"/>
<path d="M40 71.6338C56.3951 71.6338 69.6859 58.343 69.6859 41.9479C69.6859 25.5528 56.3951 12.262 40 12.262C23.6049 12.262 10.3141 25.5528 10.3141 41.9479C10.3141 58.343 23.6049 71.6338 40 71.6338Z" fill="#B78740"/>
<path d="M4.98662 41.4609C4.17824 41.4609 3.5257 40.8084 3.5257 40C3.5257 36.299 4.08085 32.6467 5.16193 29.1502C5.40541 28.3808 6.22353 27.9523 6.99295 28.186C7.76236 28.4295 8.1909 29.2476 7.95715 30.017C6.95399 33.2311 6.44754 36.5912 6.44754 40C6.44754 40.8084 5.79499 41.4609 4.98662 41.4609Z" fill="#EAD9AD"/>
<path d="M10.9666 21.8846C10.6842 21.8846 10.4017 21.8067 10.1485 21.6314C9.4765 21.1833 9.30119 20.2678 9.75894 19.6056C14.6287 12.3886 21.9138 7.14877 30.2605 4.84052C31.0299 4.62625 31.8383 5.084 32.0526 5.86316C32.2669 6.64232 31.8091 7.44096 31.0299 7.66496C23.3455 9.78817 16.6545 14.6092 12.1646 21.2515C11.8821 21.6703 11.4244 21.8943 10.9569 21.8943L10.9666 21.8846Z" fill="#EAD9AD"/>
<path d="M69.6859 40.0097C69.6859 56.4013 56.3915 69.6859 40 69.6859C23.6085 69.6859 10.3141 56.4013 10.3141 40.0097C10.3141 39.1819 10.3433 38.3735 10.4212 37.5651C11.6581 22.3034 24.4266 10.3238 40 10.3238C55.5734 10.3238 68.3418 22.3034 69.5788 37.5651C69.6567 38.3735 69.6859 39.1819 69.6859 40.0097Z" fill="#DEB173"/>
<path d="M69.5788 37.5651C68.3419 52.8171 55.5734 64.8162 40 64.8162C24.4266 64.8162 11.6581 52.8171 10.4212 37.5651C11.6581 22.3034 24.4266 10.3238 40 10.3238C55.5734 10.3238 68.3419 22.3034 69.5788 37.5651Z" fill="#EACCA8"/>
<path d="M54.804 37.7599C54.1904 36.9418 53.3723 36.3574 52.3399 35.9971V30.1534C52.3399 29.4619 52.0769 28.8386 51.5315 28.3029C50.9959 27.7672 50.3725 27.4945 49.681 27.4945H43.8276C43.4673 26.4621 42.8926 25.6343 42.1037 25.0012C41.3148 24.3682 40.4285 24.0468 39.4546 24.0468C38.4806 24.0468 37.5846 24.3682 36.8542 25.0012C36.1237 25.6343 35.5685 26.4621 35.179 27.4945H29.2963C28.5853 27.4945 27.962 27.7575 27.4263 28.3029C26.9004 28.8386 26.6375 29.4619 26.6375 30.1534V36.7568C27.5724 36.8444 28.3711 37.234 29.0236 37.906C29.6859 38.578 30.017 39.3767 30.017 40.3117C30.017 41.2467 29.6956 42.0453 29.0236 42.7173C28.3711 43.3893 27.5724 43.7789 26.6375 43.9055V50.4699C26.6375 51.2101 26.9004 51.8529 27.4263 52.3886C27.962 52.934 28.5853 53.197 29.2963 53.197H35.8218C35.9484 52.1256 36.3574 51.2588 37.0587 50.5965C37.7697 49.944 38.5488 49.6129 39.4156 49.6129C40.3506 49.6129 41.159 49.9343 41.87 50.5965C42.581 51.2588 42.99 52.1256 43.1069 53.197H49.681C50.3725 53.197 50.9861 52.9438 51.5315 52.4081C52.0672 51.8822 52.3399 51.2588 52.3399 50.5478V44.6555C53.3723 44.2951 54.1904 43.7594 54.804 43.0387C55.4078 42.3277 55.7195 41.4609 55.7195 40.448C55.7195 39.4351 55.4078 38.578 54.804 37.7599ZM46.0677 36.6691L39.2014 43.5452C39.1235 43.6328 39.0455 43.6913 38.9384 43.7302C38.841 43.7692 38.7339 43.7984 38.6267 43.7984C38.5196 43.7984 38.4125 43.7692 38.3151 43.7302C38.2177 43.6913 38.13 43.6328 38.0716 43.5452L34.8186 40.3117C34.6628 40.1558 34.5849 39.961 34.5849 39.7176C34.5849 39.4741 34.6628 39.2793 34.8186 39.1234C34.9744 38.9676 35.1692 38.8897 35.403 38.8897C35.6367 38.8897 35.8315 38.9676 36.0068 39.1234L38.6267 41.7628L44.9087 35.4809C45.0743 35.3251 45.2788 35.2374 45.5028 35.2374C45.7268 35.2374 45.9216 35.3153 46.0774 35.4809C46.243 35.6465 46.3307 35.851 46.3307 36.075C46.3307 36.299 46.243 36.5035 46.0774 36.6594L46.0677 36.6691Z" fill="url(#paint1_linear_1_17268)"/>
</g>
<defs>
<linearGradient id="paint0_linear_1_17268" x1="40" y1="4.36328" x2="40" y2="77.5067" gradientUnits="userSpaceOnUse">
<stop stop-color="#DABB63"/>
<stop offset="1" stop-color="#C29046"/>
</linearGradient>
<linearGradient id="paint1_linear_1_17268" x1="41.1785" y1="53.1872" x2="41.1785" y2="24.0468" gradientUnits="userSpaceOnUse">
<stop stop-color="#DABB63"/>
<stop offset="1" stop-color="#C29046"/>
</linearGradient>
<clipPath id="clip0_1_17268">
<rect width="80" height="80" fill="white"/>
</clipPath>
</defs>
</svg>
