<svg width="80" height="80" viewBox="0 0 80 80" fill="none" xmlns="http://www.w3.org/2000/svg">
<g clip-path="url(#clip0_1216_82004)">
<path d="M40 80C62.0914 80 80 62.0914 80 40C80 17.9086 62.0914 0 40 0C17.9086 0 0 17.9086 0 40C0 62.0914 17.9086 80 40 80Z" fill="url(#paint0_linear_1216_82004)"/>
<path d="M39.9999 71.6338C56.3949 71.6338 69.6858 58.3429 69.6858 41.9479C69.6858 25.5528 56.3949 12.262 39.9999 12.262C23.6048 12.262 10.314 25.5528 10.314 41.9479C10.314 58.3429 23.6048 71.6338 39.9999 71.6338Z" fill="#B78740"/>
<path d="M4.9868 41.461C4.17842 41.461 3.52588 40.8084 3.52588 40.0001C3.52588 36.2991 4.08103 32.6468 5.16211 29.1503C5.4056 28.3809 6.22371 27.9523 6.99313 28.1861C7.76255 28.4296 8.19108 29.2477 7.95734 30.0171C6.95417 33.2311 6.44772 36.5912 6.44772 40.0001C6.44772 40.8084 5.79518 41.461 4.9868 41.461Z" fill="#EAD9AD"/>
<path d="M10.9667 21.8847C10.6843 21.8847 10.4018 21.8068 10.1486 21.6314C9.47656 21.1834 9.30125 20.2679 9.759 19.6056C14.6287 12.3887 21.9139 7.14885 30.2606 4.8406C31.03 4.62633 31.8384 5.08408 32.0526 5.86324C32.2669 6.6424 31.8092 7.44104 31.03 7.66504C23.3456 9.78825 16.6545 14.6093 12.1647 21.2516C11.8822 21.6704 11.4245 21.8944 10.957 21.8944L10.9667 21.8847Z" fill="#EAD9AD"/>
<path d="M69.6858 40.0096C69.6858 56.4012 56.3914 69.6858 39.9999 69.6858C23.6083 69.6858 10.314 56.4012 10.314 40.0096C10.314 39.1818 10.3432 38.3734 10.4211 37.565C11.658 22.3033 24.4265 10.3237 39.9999 10.3237C55.5733 10.3237 68.3417 22.3033 69.5786 37.565C69.6566 38.3734 69.6858 39.1818 69.6858 40.0096Z" fill="#DEB173"/>
<path d="M69.5789 37.565C68.342 52.817 55.5736 64.8161 40.0002 64.8161C24.4267 64.8161 11.6583 52.817 10.4214 37.565C11.6583 22.3033 24.4267 10.3237 40.0002 10.3237C55.5736 10.3237 68.342 22.3033 69.5789 37.565V37.565Z" fill="#EACCA8"/>
<path d="M49.5738 37.1367L42.5419 24.9526C41.3537 22.8976 38.3832 22.8976 37.1949 24.9526L32.3252 33.3968L29.6274 32.676C27.621 32.1306 25.7705 33.9811 26.316 35.9972L28.0009 42.2792C27.4457 46.1457 28.9456 50.1974 31.7311 52.9147C35.4808 57.3266 42.951 58.3785 47.3435 53.6938C47.7623 53.2945 48.1518 52.8757 48.483 52.4277C52.1937 48.3858 53.2553 41.8798 49.5738 37.127V37.1367ZM39.8733 50.9668C35.6366 51.1031 33.0167 45.8633 35.5782 42.5519L38.6851 37.1659C39.211 36.2504 40.5258 36.2504 41.0518 37.1659L44.1684 42.5519C46.7201 45.8535 44.1002 51.1031 39.8733 50.9668Z" fill="url(#paint1_linear_1216_82004)"/>
<path d="M32.9581 25.7707L31.6627 27.4848C31.351 27.8939 30.7375 27.8939 30.4258 27.4848L29.1304 25.7707C28.9259 25.4979 28.9259 25.1181 29.1304 24.8454L30.4258 23.1313C30.7375 22.7222 31.351 22.7222 31.6627 23.1313L32.9581 24.8454C33.1626 25.1181 33.1626 25.4979 32.9581 25.7707Z" fill="#DEB173"/>
<path d="M40.8961 19.9562L40.2046 20.8717C40.0391 21.0957 39.7079 21.0957 39.5424 20.8717L38.8509 19.9562C38.7437 19.8101 38.7437 19.6056 38.8509 19.4595L39.5424 18.544C39.7079 18.32 40.0391 18.32 40.2046 18.544L40.8961 19.4595C41.0033 19.6056 41.0033 19.8101 40.8961 19.9562Z" fill="#DEB173"/>
</g>
<defs>
<linearGradient id="paint0_linear_1216_82004" x1="40" y1="4.36328" x2="40" y2="77.5067" gradientUnits="userSpaceOnUse">
<stop stop-color="#DABB63"/>
<stop offset="1" stop-color="#C29046"/>
</linearGradient>
<linearGradient id="paint1_linear_1216_82004" x1="39.0454" y1="56.7618" x2="39.0454" y2="23.4138" gradientUnits="userSpaceOnUse">
<stop stop-color="#DABB63"/>
<stop offset="1" stop-color="#C29046"/>
</linearGradient>
<clipPath id="clip0_1216_82004">
<rect width="80" height="80" fill="white"/>
</clipPath>
</defs>
</svg>
