<svg width="80" height="80" viewBox="0 0 80 80" fill="none" xmlns="http://www.w3.org/2000/svg">
<g clip-path="url(#clip0_1_17324)">
<path d="M40 80C62.0914 80 80 62.0914 80 40C80 17.9086 62.0914 0 40 0C17.9086 0 0 17.9086 0 40C0 62.0914 17.9086 80 40 80Z" fill="url(#paint0_linear_1_17324)"/>
<path d="M40 71.6338C56.3951 71.6338 69.6859 58.343 69.6859 41.9479C69.6859 25.5528 56.3951 12.262 40 12.262C23.6049 12.262 10.3141 25.5528 10.3141 41.9479C10.3141 58.343 23.6049 71.6338 40 71.6338Z" fill="#7190AF"/>
<path d="M4.9866 41.4609C4.17822 41.4609 3.52568 40.8084 3.52568 40C3.52568 36.299 4.08083 32.6467 5.16191 29.1502C5.4054 28.3808 6.22351 27.9523 6.99293 28.186C7.76235 28.4295 8.19089 29.2476 7.95714 30.017C6.95397 33.2311 6.44752 36.5912 6.44752 40C6.44752 40.8084 5.79498 41.4609 4.9866 41.4609Z" fill="#D1E7F7"/>
<path d="M10.9666 21.8846C10.6842 21.8846 10.4017 21.8067 10.1485 21.6314C9.4765 21.1833 9.30119 20.2678 9.75894 19.6055C14.6287 12.3886 21.9138 7.14877 30.2605 4.84051C31.0299 4.62624 31.8383 5.084 32.0526 5.86316C32.2669 6.64232 31.8091 7.44095 31.0299 7.66496C23.3455 9.78816 16.6545 14.6092 12.1646 21.2515C11.8821 21.6703 11.4244 21.8943 10.9569 21.8943L10.9666 21.8846Z" fill="#D1E7F7"/>
<path d="M69.6859 40.0097C69.6859 56.4013 56.3915 69.6859 40 69.6859C23.6085 69.6859 10.3141 56.4013 10.3141 40.0097C10.3141 39.1819 10.3433 38.3735 10.4212 37.5651C11.6581 22.3034 24.4266 10.3238 40 10.3238C55.5734 10.3238 68.3419 22.3034 69.5788 37.5651C69.6567 38.3735 69.6859 39.1819 69.6859 40.0097Z" fill="#B1CBE1"/>
<path d="M69.5788 37.5651C68.3419 52.8171 55.5734 64.8162 40 64.8162C24.4266 64.8162 11.6581 52.8171 10.4212 37.5651C11.6581 22.3034 24.4266 10.3238 40 10.3238C55.5734 10.3238 68.3419 22.3034 69.5788 37.5651Z" fill="#E5F1F8"/>
<path d="M47.4117 15.6318C53.4405 14.2099 54.5897 13.0704 56.0019 7.04163C57.4239 13.0704 58.5634 14.2196 64.5922 15.6318C58.5634 17.0538 57.4142 18.1933 56.0019 24.2221C54.58 18.1933 53.4405 17.0441 47.4117 15.6318Z" fill="#F8FFFF"/>
<path d="M24.0857 70.056C26.1213 69.5788 26.5108 69.1892 26.9881 67.1536C27.4653 69.1892 27.8549 69.5788 29.8904 70.056C27.8549 70.5332 27.4653 70.9228 26.9881 72.9584C26.5108 70.9228 26.1213 70.5332 24.0857 70.056Z" fill="#F8FFFF"/>
<path d="M55.5539 26.9686H48.3467V39.0553H50.2167C54.317 39.0553 57.6479 35.7244 57.6479 31.6241V29.0626C57.6479 27.9036 56.7129 26.9686 55.5539 26.9686ZM55.8461 31.7994C55.8461 34.3219 53.8008 36.3574 51.288 36.3574H50.1388V28.9457H54.5605C55.2715 28.9457 55.8461 29.5203 55.8461 30.2313V31.7994Z" fill="#B1CBE1"/>
<path d="M21.8067 29.0626V31.6241C21.8067 35.7244 25.1376 39.0553 29.2379 39.0553H31.1079V26.9686H23.9007C22.7417 26.9686 21.8067 27.9036 21.8067 29.0626ZM23.5987 30.2313C23.5987 29.5203 24.1734 28.9457 24.8843 28.9457H29.3061V36.3574H28.1568C25.644 36.3574 23.5987 34.3122 23.5987 31.7994V30.2313Z" fill="#B1CBE1"/>
<path d="M48.1227 50.0511H44.1587C44.3146 49.6908 44.4022 49.2914 44.4022 48.8727V48.1519C44.4022 46.8955 43.3796 45.8729 42.1232 45.8729H37.1269C35.8705 45.8729 34.8478 46.8955 34.8478 48.1519V48.8727C34.8478 49.2914 34.9355 49.6908 35.0913 50.0511H31.1273C30.5917 50.0511 30.1631 50.4797 30.1631 51.0153V55.0864C30.1631 55.6221 30.5917 56.0506 31.1273 56.0506H48.1325C48.6681 56.0506 49.0967 55.6221 49.0967 55.0864V51.0153C49.0967 50.4797 48.6681 50.0511 48.1325 50.0511H48.1227Z" fill="url(#paint1_linear_1_17324)"/>
<path d="M49.2233 23.9494H30.0171C28.5561 23.9494 27.3777 25.1278 27.3777 26.5888V36.1919C27.3777 42.9511 32.861 48.4344 39.6202 48.4344C46.3794 48.4344 51.8627 42.9511 51.8627 36.1919V26.5888C51.8627 25.1278 50.6842 23.9494 49.2233 23.9494ZM44.821 34.0589L42.8926 36.0068C42.7563 36.1432 42.6978 36.338 42.7368 36.523L43.2433 39.2111C43.3309 39.6786 42.8439 40.0487 42.4154 39.8344L39.9708 38.5975C39.8052 38.5099 39.6007 38.5196 39.4351 38.5975L37.0295 39.9123C36.6107 40.1461 36.114 39.7955 36.1821 39.3182L36.6009 36.6107C36.6302 36.4256 36.562 36.2308 36.4256 36.1042L34.429 34.2245C34.0784 33.8934 34.2635 33.309 34.731 33.2311L37.4385 32.7928C37.6236 32.7636 37.7891 32.637 37.8671 32.4714L39.0358 29.9976C39.2403 29.569 39.8539 29.5496 40.0682 29.9781L41.3246 32.413C41.4122 32.5785 41.5778 32.6954 41.7629 32.7246L44.4802 33.0752C44.9574 33.1337 45.1522 33.718 44.821 34.0492V34.0589Z" fill="url(#paint2_linear_1_17324)"/>
</g>
<defs>
<linearGradient id="paint0_linear_1_17324" x1="40" y1="4.36328" x2="40" y2="77.5067" gradientUnits="userSpaceOnUse">
<stop stop-color="#B7D6EB"/>
<stop offset="1" stop-color="#7DA5C8"/>
</linearGradient>
<linearGradient id="paint1_linear_1_17324" x1="39.6202" y1="56.0506" x2="39.6202" y2="45.8729" gradientUnits="userSpaceOnUse">
<stop stop-color="#B7D6EB"/>
<stop offset="1" stop-color="#7DA5C8"/>
</linearGradient>
<linearGradient id="paint2_linear_1_17324" x1="39.6202" y1="48.4344" x2="39.6202" y2="23.9494" gradientUnits="userSpaceOnUse">
<stop stop-color="#B7D6EB"/>
<stop offset="1" stop-color="#7DA5C8"/>
</linearGradient>
<clipPath id="clip0_1_17324">
<rect width="80" height="80" fill="white"/>
</clipPath>
</defs>
</svg>
